<svg width="48" height="48" viewBox="0 0 48 48" fill="none" xmlns="http://www.w3.org/2000/svg">
<path fill-rule="evenodd" clip-rule="evenodd" d="M23.7138 4C29.8818 4 33.1714 13.1521 36.0498 21.7072C36.9407 21.3093 39.5039 20.4737 42.629 20.3145V25.0895C41.3954 25.1558 38.5581 25.4079 37.0778 25.8853C38.517 33.2468 38.517 44.3707 29.6762 43.9905C24.5412 43.7697 22.8914 40.0113 23.3026 36.828C23.7138 33.6447 26.4277 27.7556 32.349 24.0947C30.9098 18.325 27.4968 6.8252 23.7138 6.98437C17.7513 7.23523 13.0225 30.2624 10.5553 42.0009H5.20968C8.49929 29.4666 15.3252 4 23.7138 4ZM32.9658 27.0791C25.5642 30.8593 22.6858 40.0113 27.8258 41.603C35.433 43.5926 33.5826 29.2676 32.9658 27.0791Z" fill="#D32F2F"/>
</svg>
