<svg width="18" height="19" viewBox="0 0 18 19" fill="none" xmlns="http://www.w3.org/2000/svg">
<g clip-path="url(#clip0_1056_10620)">
<path d="M10.7852 1.25L13.0699 5.55647" stroke="white" stroke-width="1.125"/>
<path d="M9.32815 7.46875L13.4082 5.00077" stroke="white" stroke-width="1.125"/>
<path d="M9 3.5C10.3354 3.5 11.5792 3.88948 12.627 4.55859L11.9639 5.46973C11.1031 4.9349 10.0879 4.625 9 4.625C5.8934 4.625 3.375 7.1434 3.375 10.25C3.375 13.3566 5.8934 15.875 9 15.875C11.5871 15.875 13.7654 14.1283 14.4219 11.75H15.5811C14.8988 14.7558 12.2123 17 9 17C5.27208 17 2.25 13.9779 2.25 10.25C2.25 6.52208 5.27208 3.5 9 3.5Z" fill="white"/>
</g>
<defs>
<clipPath id="clip0_1056_10620">
<rect width="18" height="18" fill="white" transform="translate(0 0.5)"/>
</clipPath>
</defs>
</svg>
