<svg width="24" height="24" viewBox="0 0 24 24" fill="none" xmlns="http://www.w3.org/2000/svg">
<path d="M12 5.75C13.7949 5.75 15.25 7.20507 15.25 9C15.25 10.7949 13.7949 12.25 12 12.25C10.2051 12.25 8.75 10.7949 8.75 9C8.75 7.20508 10.2051 5.75001 12 5.75Z" stroke="white" stroke-width="1.5"/>
<path d="M16 18.8504L18.3094 21.1004L22 16.9004" stroke="white" stroke-width="1.575"/>
<path d="M12.3838 14.0068C14.3186 14.0762 16.0589 14.6698 17.334 15.7256L16.2666 16.793C15.2329 15.988 13.7499 15.5 11.998 15.5C10.1973 15.5 8.67908 16.0138 7.64258 16.8594C6.74056 17.5954 6.13317 18.6355 6.01855 20.0166C5.54373 19.6619 5.1036 19.2639 4.69922 18.832C5.47816 15.7313 8.44924 14 11.998 14L12.3838 14.0068Z" fill="white"/>
<path d="M12 2C17.5228 2 22 6.47715 22 12C22 13.1803 21.7934 14.312 21.418 15.3633L19.9639 14.9736C20.3097 14.0479 20.5 13.0463 20.5 12C20.5 7.30558 16.6944 3.5 12 3.5C7.30558 3.5 3.5 7.30558 3.5 12C3.5 16.6944 7.30558 20.5 12 20.5C12.7487 20.5 13.4744 20.4015 14.166 20.2197L14.5547 21.6689C13.7391 21.8839 12.8831 22 12 22C6.47715 22 2 17.5228 2 12C2 6.47715 6.47715 2 12 2Z" fill="white"/>
</svg>
