<svg width="24" height="24" viewBox="0 0 24 24" fill="none" xmlns="http://www.w3.org/2000/svg">
<path d="M12 5.75C13.7949 5.75 15.25 7.20507 15.25 9C15.25 10.7949 13.7949 12.25 12 12.25C10.2051 12.25 8.75 10.7949 8.75 9C8.75 7.20508 10.2051 5.75001 12 5.75Z" stroke="#D32F2F" stroke-width="1.5"/>
<path d="M12.3838 14.0068C15.7604 14.128 18.546 15.8439 19.2969 18.8311C18.8922 19.2633 18.4518 19.6616 17.9766 20.0166C17.8619 18.6355 17.2555 17.5954 16.3535 16.8594C15.317 16.0138 13.7988 15.5 11.998 15.5C10.1973 15.5 8.67908 16.0138 7.64258 16.8594C6.74056 17.5954 6.13317 18.6355 6.01855 20.0166C5.54373 19.6619 5.1036 19.2639 4.69922 18.832C5.47816 15.7313 8.44924 14 11.998 14L12.3838 14.0068Z" fill="#D32F2F"/>
<path d="M12 2C13.2493 2 14.4443 2.23097 15.5469 2.64941L14.7852 3.96875C13.9124 3.66614 12.9757 3.5 12 3.5C7.30558 3.5 3.5 7.30558 3.5 12C3.5 16.6944 7.30558 20.5 12 20.5C16.6944 20.5 20.5 16.6944 20.5 12C20.5 11.0718 20.3492 10.1789 20.0742 9.34277L21.3984 8.57812C21.7872 9.64571 22 10.798 22 12C22 17.5228 17.5228 22 12 22C6.47715 22 2 17.5228 2 12C2 6.47715 6.47715 2 12 2ZM18.9277 4.79199C19.0554 4.91471 19.1798 5.04063 19.3008 5.16992L18.4141 5.68262L18.9277 4.79199Z" fill="#D32F2F"/>
<line x1="22" y1="5" x2="16" y2="5" stroke="#D32F2F" stroke-width="1.5"/>
<line x1="19" y1="2" x2="19" y2="8" stroke="#D32F2F" stroke-width="1.5"/>
</svg>
