<svg xmlns="http://www.w3.org/2000/svg" width="32" height="32" viewBox="0 0 32 32" fill="none">
  <path fill-rule="evenodd" clip-rule="evenodd" d="M30.72 16.3502C30.72 15.2629 30.6224 14.2174 30.4412 13.2139H16V19.145H24.2521C23.8967 21.0617 22.8164 22.6857 21.1924 23.7729V27.6202H26.1479C29.0473 24.9508 30.72 21.02 30.72 16.3502Z" fill="#4285F4"/>
  <path fill-rule="evenodd" clip-rule="evenodd" d="M15.9994 31.3311C20.1394 31.3311 23.6102 29.9581 26.1472 27.6163L21.1918 23.769C19.8187 24.689 18.0623 25.2326 15.9994 25.2326C12.0057 25.2326 8.62537 22.5354 7.41961 18.9111H2.29688V22.8839C4.81992 27.8951 10.0054 31.3311 15.9994 31.3311Z" fill="#34A853"/>
  <path fill-rule="evenodd" clip-rule="evenodd" d="M7.42063 18.9137C7.11397 17.9937 6.93972 17.0109 6.93972 16.0004C6.93972 14.9897 7.11397 14.007 7.42063 13.087V9.11426H2.2979C1.25942 11.1843 0.666992 13.5261 0.666992 16.0004C0.666992 18.4745 1.25942 20.8164 2.2979 22.8864L7.42063 18.9137Z" fill="#FBBC05"/>
  <path fill-rule="evenodd" clip-rule="evenodd" d="M15.9994 6.76547C18.2506 6.76547 20.2718 7.53911 21.8608 9.05851L26.2587 4.66063C23.6032 2.18639 20.1323 0.666992 15.9994 0.666992C10.0054 0.666992 4.81992 4.10306 2.29688 9.11426L7.41961 13.087C8.62537 9.46275 12.0057 6.76547 15.9994 6.76547Z" fill="#EA4335"/>
</svg>