<svg width="18" height="16" viewBox="0 0 18 16" fill="none" xmlns="http://www.w3.org/2000/svg">
<path d="M2.44727 2.36328C3.98753 0.832761 6.47863 0.847146 8.00098 2.39551L8.61133 3.0166L9.06152 3.47461L9.50781 3.01172L10.0566 2.44141C11.561 0.879759 14.0555 0.860275 15.584 2.39844C17.0724 3.89633 17.0836 6.31143 15.6094 7.82324L14.5771 8.88184L8.96582 14.5137L3.38574 8.88281L2.4043 7.87695C0.903503 6.33857 0.922788 3.8782 2.44727 2.36328Z" stroke="#D32F2F" stroke-width="1.25"/>
<path d="M2.00664 1.91974C3.79256 0.145182 6.68083 0.161779 8.44609 1.95685L9.05742 2.57795L9.60625 2.00763C9.91328 1.6889 10.2561 1.42562 10.6219 1.2176L11.2469 2.3006C10.9802 2.45137 10.7302 2.64272 10.5066 2.87482L9.95781 3.44513L9.06621 4.36994L8.16582 3.45392L7.55546 2.83381C6.27601 1.53247 4.18199 1.52009 2.8875 2.80646C1.60645 4.07967 1.5901 6.1474 2.85136 7.44025L3.82988 8.44318L8.9666 13.6268L14.1346 8.44025L15.1619 7.38654C15.4103 7.13179 15.6069 6.84536 15.7547 6.54181L16.8396 7.16779C16.6394 7.55921 16.3793 7.92857 16.0564 8.25959L15.0193 9.32306L8.96464 15.4002L2.94121 9.32306L1.95683 8.3133C0.271074 6.58532 0.239083 3.8538 1.8455 2.08771L2.00664 1.91974Z" fill="#1D1E20"/>
</svg>
