<svg width="20" height="20" viewBox="0 0 20 20" fill="none" xmlns="http://www.w3.org/2000/svg">
<g clip-path="url(#clip0_1786_7486)">
<path d="M12.1975 7.80054C14.3164 9.91938 14.3829 13.3139 12.3964 15.5124L12.1975 15.721L9.55761 18.3609C7.37046 20.5479 3.82426 20.548 1.63718 18.3609L1.43831 18.1523C-0.483996 16.0248 -0.483334 12.7773 1.439 10.6497L1.63718 10.4405L3.2993 8.77834L4.35996 9.839L2.69784 11.5011C1.09668 13.1024 1.09664 15.6989 2.69784 17.3002C4.29914 18.9015 6.89559 18.9014 8.49695 17.3002L11.1369 14.6603C12.7382 13.059 12.7382 10.4625 11.1369 8.8612C10.8183 8.54267 10.4599 8.28859 10.0783 8.09678L11.1804 6.99469C11.4633 7.16968 11.7343 7.37158 11.989 7.60167L12.1975 7.80054Z" fill="#1D1E20"/>
<path d="M7.79955 12.1998C5.68072 10.081 5.61417 6.68642 7.60068 4.48794L7.79955 4.2794L10.4395 1.63949C12.6266 -0.547424 16.1728 -0.54757 18.3599 1.63949L18.5588 1.84803C20.481 3.97559 20.4803 7.22312 18.5581 9.35068L18.3599 9.55991L16.6998 11.22L15.6392 10.1593L17.2992 8.49925C18.9003 6.89794 18.9004 4.30143 17.2992 2.70015C15.698 1.09888 13.1015 1.09902 11.5001 2.70015L8.86021 5.34006C7.25887 6.9414 7.25887 9.53782 8.86021 11.1392C9.17847 11.4574 9.53618 11.7118 9.91742 11.9036L8.81602 13.005C8.5334 12.8301 8.26252 12.6286 8.00809 12.3987L7.79955 12.1998Z" fill="#D32F2F"/>
</g>
<defs>
<clipPath id="clip0_1786_7486">
<rect width="20" height="20" fill="white"/>
</clipPath>
</defs>
</svg>
